<?xml version="1.0" encoding="UTF-8" standalone="no"?>
<!DOCTYPE svg PUBLIC "-//W3C//DTD SVG 1.1//EN" "http://www.w3.org/Graphics/SVG/1.1/DTD/svg11.dtd">
<svg width="100%" height="100%" viewBox="0 0 4267 4267" version="1.1" xmlns="http://www.w3.org/2000/svg" xmlns:xlink="http://www.w3.org/1999/xlink" xml:space="preserve" xmlns:serif="http://www.serif.com/" style="fill-rule:evenodd;clip-rule:evenodd;stroke-linejoin:round;stroke-miterlimit:2;">
    <g transform="matrix(4.16667,0,0,4.16667,0,0)">
        <g transform="matrix(1.4693,0,0,1.95463,13.1405,18.1379)">
            <g id="BG">
                <rect x="-28" y="-19" width="733" height="551" style="fill:white;"/>
            </g>
        </g>
        <path d="M174,1013C160,1011 135,1000 113,987C102,980 81,971 70,967C64,964 61,964 53,964C41,964 34,966 23,972C14,977 4,982 1,982L0,982L0,851L3,851C14,848 49,831 70,819C86,809 112,792 119,787C121,785 128,779 134,775C151,761 186,729 227,690C281,638 329,593 344,581C391,540 417,526 457,520C483,517 513,521 544,531C575,541 617,565 658,596C715,641 740,657 782,677C851,712 926,731 1015,738L1024,738L1024,823L1021,823C1017,822 954,811 942,809C897,802 827,799 785,802C716,807 659,819 589,843C559,854 517,871 478,888C460,896 418,917 411,922C407,924 402,927 399,928C397,929 389,934 382,938C366,947 339,962 317,974C301,982 300,982 294,982C283,982 278,984 255,995C231,1007 223,1010 211,1012C202,1014 183,1014 174,1013ZM0,710L0,0L1024,0L1024,569L1019,570C1004,574 976,583 969,585C952,589 917,594 894,597C872,600 821,604 815,603C812,603 785,588 755,570C694,533 691,531 670,517C651,504 639,495 631,487C623,479 621,475 617,463C611,446 607,424 612,408C617.725,390.006 610.74,392.75 620.591,389.969C622.784,389.35 625.812,388.457 630,387C637,385 649,372 664,372C679,372 691,367 699,369C717,376 728,393 732,410C734,418 741,430 740,439C735,459 722,483 711,492C708,494 705,497 705,497L705,498L711,498C726,496 752,486 767,476C818,443 848,392 850,336C851,290 835,251 802,222C782,204 756,192 728,186C709,182 681,181 660,183C637,186 621,190 599,196C534,214 479,242 424,284C416,290 408,297 406,298C399,304 362,337 347,351C324,373 268,428 251,447C247,451 236,462 227,472C219,481 207,493 202,499C197,505 187,516 180,523C173,530 163,541 158,547C153,553 145,561 141,566C137,570 128,579 122,586C116,593 107,602 102,607C98,612 92,618 88,622C79,632 2,710 1,710L0,710Z" style="fill:rgb(51,98,156);fill-rule:nonzero;"/>
        <g id="Layer1">
            <path d="M0,710L0,-42L1024,-37L1024,569L1019,570C1004,574 976,583 969,585C952,589 917,594 894,597C872,600 821,604 815,603C812,603 785,588 755,570C694,533 691,531 670,517C651,504 639,495 631,487C623,479 611,450 607,438C601,421 610.631,397.857 615.967,392.615C621.494,387.187 643.153,372.295 644,372C649.139,370.532 674.173,365.122 678,364C693.579,359.435 712.49,368.134 720,374C738,381 737,423 741,440C743,448 722,483 711,492C708,494 705,497 705,497L705,498L711,498C726,496 752,486 767,476C818,443 848,392 850,336C851,290 835,251 802,222C782,204 756,192 728,186C709,182 681,181 660,183C637,186 621,190 599,196C534,214 479,242 424,284C416,290 408,297 406,298C399,304 362,337 347,351C324,373 268,428 251,447C247,451 236,462 227,472C219,481 207,493 202,499C197,505 187,516 180,523C173,530 163,541 158,547C153,553 145,561 141,566C137,570 128,579 122,586C116,593 107,602 102,607C98,612 92,618 88,622C79,632 2,710 1,710L0,710Z" style="fill:url(#_Linear1);fill-rule:nonzero;"/>
        </g>
    </g>
    <defs>
        <linearGradient id="_Linear1" x1="0" y1="0" x2="1" y2="0" gradientUnits="userSpaceOnUse" gradientTransform="matrix(71,-753,753,71,411,736)"><stop offset="0" style="stop-color:rgb(23,83,156);stop-opacity:1"/><stop offset="1" style="stop-color:rgb(69,140,228);stop-opacity:1"/></linearGradient>
    </defs>
</svg>
