<?xml version="1.0" standalone="no"?>

<!DOCTYPE svg PUBLIC "-//W3C//DTD SVG 20010904//EN"

 "http://www.w3.org/TR/2001/REC-SVG-20010904/DTD/svg10.dtd">

<svg version="1.0" xmlns="http://www.w3.org/2000/svg"

 width="1024.000000pt" height="1024.000000pt" viewBox="0 0 1024.000000 1024.000000"

 preserveAspectRatio="xMidYMid meet">

<path fill="#33629c" stroke="none" d="
M1008 1017

L1008 1009

L1014 1009

C1017 1009 1021 1009 1022 1010

L1024 1010

L1024 1017

L1024 1024

L1016 1024

L1008 1024

L1008 1017

Z

M174 1013

C160 1011 135 1000 113 987

C102 980 81 971 70 967

C64 964 61 964 53 964

C41 964 34 966 23 972

C14 977 4 982 1 982

L0 982

L0 917

L0 851

L3 851

C14 848 49 831 70 819

C86 809 112 792 119 787

C121 785 128 779 134 775

C151 761 186 729 227 690

C281 638 329 593 344 581

C391 540 417 526 457 520

C483 517 513 521 544 531

C575 541 617 565 658 596

C715 641 740 657 782 677

C851 712 926 731 1015 738

L1024 738

L1024 781

L1024 823

L1021 823

C1017 822 954 811 942 809

C897 802 827 799 785 802

C716 807 659 819 589 843

C559 854 517 871 478 888

C460 896 418 917 411 922

C407 924 402 927 399 928

C397 929 389 934 382 938

C366 947 339 962 317 974

C301 982 300 982 294 982

C283 982 278 984 255 995

C231 1007 223 1010 211 1012

C202 1014 183 1014 174 1013

Z

M0 361

C0 13 0 13 4 9

C6 7 9 4 10 3

C11 0 11 0 518 0

L1024 0

L1024 284

L1024 569

L1019 570

C1004 574 980 581 973 583

C956 587 917 594 894 597

C872 600 821 604 815 603

C812 603 785 588 755 570

C694 533 691 531 670 517

C651 504 639 495 631 487

C623 479 621 475 617 463

C611 446 611 433 616 417

C623 395 637 381 660 373

C667 371 669 371 684 371

C699 371 700 371 708 373

C726 380 735 390 739 407

C741 415 741 430 740 439

C735 459 722 483 711 492

C708 494 705 497 705 497

L705 498

L711 498

C726 496 752 486 767 476

C818 443 848 392 850 336

C851 290 835 251 802 222

C782 204 756 192 728 186

C709 182 681 181 660 183

C637 186 621 190 599 196

C534 214 479 242 424 284

C416 290 408 297 406 298

C399 304 362 337 347 351

C324 373 268 428 251 447

C247 451 236 462 227 472

C219 481 207 493 202 499

C197 505 187 516 180 523

C173 530 163 541 158 547

C153 553 145 561 141 566

C137 570 128 579 122 586

C116 593 107 602 102 607

C98 612 92 618 88 622

C79 632 2 710 1 710

L0 710

L0 361

Z

"/>

<path fill="#c4c458" stroke="none" d="
M944 1016

L945 1009

L952 1009

L960 1009

L960 1016

L960 1024

L952 1024

L944 1024

L944 1016

Z

M976 1016

L977 1009

L992 1008

L1008 1008

L1008 1016

L1008 1024

L992 1024

L976 1024

L976 1016

Z

"/>

<path fill="#69a7ff" stroke="none" d="
M136 1013

C128 1007 118 1000 114 997

C92 979 83 973 71 969

C63 966 61 966 52 966

C42 966 40 966 35 968

C26 971 15 979 8 987

C4 991 1 994 0 994

L0 994

L0 988

L0 982

L5 981

C8 980 15 976 21 973

C35 966 40 964 53 964

C61 964 64 964 70 967

C81 971 102 980 113 987

C136 1000 160 1011 175 1013

C184 1014 202 1014 211 1012

C223 1010 231 1007 255 995

C278 984 283 982 294 982

C300 982 301 982 317 974

C339 962 366 947 382 938

C389 934 397 929 399 928

C402 927 407 924 411 922

C418 917 460 896 478 888

C517 871 559 854 589 843

C659 819 716 807 785 802

C827 799 898 802 942 809

C961 812 1013 821 1019 822

L1024 823

L1024 869

C1024 915 1024 915 1005 934

C979 960 966 969 950 975

C944 977 940 977 932 977

C912 977 899 972 863 947

C857 942 849 937 847 934

C844 932 840 929 837 927

C834 926 829 923 827 922

C818 915 805 909 796 908

C787 907 780 908 769 913

C760 918 755 922 722 956

C694 986 678 995 655 995

C645 995 634 993 625 989

C617 986 598 975 583 965

C558 949 550 944 538 940

C527 937 514 937 505 939

C487 946 479 953 453 987

C449 993 440 1003 433 1011

C420 1024 420 1024 394 1024

C369 1024 369 1024 359 1017

C354 1014 345 1008 341 1004

C308 979 278 978 255 1001

C251 1005 245 1012 242 1016

C237 1024 237 1024 194 1024

C151 1024 151 1024 136 1013

Z

M961 1017

L961 1009

L969 1009

L976 1009

L976 1017

L976 1024

L969 1024

L961 1024

L961 1017

Z

M1008 1009

L1008 1008

L1016 1008

L1024 1008

L1024 1009

L1024 1010

L1016 1010

C1012 1010 1009 1009 1008 1009

Z

M0 825

C0 800 0 800 2 798

C13 791 52 754 84 720

C137 663 202 598 230 572

C279 529 311 503 348 479

C358 472 378 459 392 450

C405 441 419 432 423 431

C444 420 472 418 501 424

C511 426 528 432 538 437

C544 440 548 442 548 442

L549 442

L549 422

C549 409 549 401 550 397

C558 362 603 327 651 317

C662 315 685 315 695 317

C723 324 744 338 758 359

C763 366 770 382 772 391

C774 398 774 402 774 414

C773 426 773 429 770 436

C767 446 765 450 760 456

C750 470 736 481 719 488

L713 491

L717 486

C725 477 735 457 738 445

C741 434 742 416 740 408

C735 390 726 380 708 373

C700 371 699 371 684 371

C669 371 667 371 660 373

C643 379 630 389 623 401

C618 409 613 424 612 433

C611 445 615 462 622 475

C629 489 656 510 717 547

C772 580 779 584 803 598

C811 602 814 603 817 603

L822 603

L820 604

L818 605

L820 606

C823 609 860 624 884 632

C926 647 978 658 1016 662

L1024 663

L1024 700

L1024 738

L1015 738

C927 731 851 712 782 677

C740 657 715 641 658 596

C607 558 562 534 522 525

C473 513 431 520 390 545

C363 562 333 589 227 690

C186 729 151 761 134 775

C128 779 121 785 119 787

C112 792 86 809 70 819

C49 831 14 848 3 851

L0 851

L0 825

Z

M43 669

C65 647 87 623 93 617

L104 606

L95 616

C90 622 67 645 44 668

L3 710

L43 669

Z

M831 602

C833 602 835 602 836 602

L839 603

L834 603

L829 603

L831 602

Z

M848 601

C849 601 851 601 851 601

L853 602

L850 602

L847 602

L848 601

Z

M861 600

C861 600 863 600 863 600

L865 601

L862 601

L860 601

L861 600

Z

M873 599

C873 599 875 599 875 599

L877 600

L874 600

L872 600

L873 599

Z

M113 596

C115 594 117 592 117 592

L117 592

L114 596

C112 597 110 599 110 599

L110 599

L113 596

Z

M882 598

L883 598

L884 598

L884 599

L882 599

L881 599

L882 598

Z

M123 585

C123 585 124 583 126 581

L130 579

L127 582

C125 584 123 585 123 585

L123 585

L123 585

Z

M137 570

C139 568 141 566 141 566

L141 566

L138 570

C136 571 134 573 134 573

L134 573

L137 570

Z

M151 555

C152 553 154 552 154 552

L154 552

L152 555

C151 556 149 557 149 557

L149 557

L151 555

Z

M160 545

C161 543 163 542 163 542

L163 542

L161 545

C160 546 158 547 158 547

L158 547

L160 545

Z

M167 537

C167 537 168 535 170 533

L174 531

L171 534

C169 536 167 537 167 537

L167 537

L167 537

Z

M204 497

C204 496 206 495 206 495

L206 495

L205 497

C204 498 202 499 202 499

L202 499

L204 497

Z

M705 497

C705 497 706 496 707 495

L709 494

L707 496

C706 497 705 498 705 498

L705 498

L705 497

Z

M216 484

C220 480 223 477 223 477

L223 477

L217 484

C213 487 210 490 210 490

L210 490

L216 484

Z

M236 463

C240 459 244 455 244 455

L244 455

L237 463

C232 467 228 471 228 471

L228 471

L236 463

Z

M775 471

C775 470 776 470 777 469

L779 468

L777 469

C776 470 776 471 775 471

L775 471

L775 471

Z

M785 463

C785 462 786 462 787 461

L789 460

L787 461

C786 462 786 463 785 463

L785 463

L785 463

Z

M800 449

C806 442 811 437 812 436

L814 434

L809 440

C806 443 801 449 797 453

L790 460

L800 449

Z

M250 448

C253 444 256 442 256 442

L256 442

L251 448

C248 451 245 453 245 453

L245 453

L250 448

Z

M263 434

C267 430 270 427 270 427

L270 427

L264 434

C260 437 257 440 257 440

L257 440

L263 434

Z

M814 433

C814 432 815 432 816 431

L818 430

L816 431

C815 432 815 433 814 433

L814 433

L814 433

Z

M280 417

C283 414 286 411 286 411

L286 411

L281 417

C277 420 274 423 274 423

L274 423

L280 417

Z

M306 390

C306 389 307 389 308 388

L310 387

L308 388

C307 389 307 390 306 390

L306 390

L306 390

Z

M331 366

C334 362 338 359 338 359

L338 359

L332 366

C328 370 324 373 324 373

L324 373

L331 366

Z

M351 347

C353 345 355 343 355 343

L355 343

L352 347

C349 349 347 351 347 351

L347 351

L351 347

Z

M849 344

L849 342

L850 343

C850 343 850 345 850 345

L849 347

L849 344

Z

M361 338

C363 336 365 334 365 334

L365 334

L362 338

C359 340 357 342 357 342

L357 342

L361 338

Z

M370 330

C372 327 375 325 375 325

L375 325

L375 325

C375 325 373 328 370 330

L366 335

L370 330

Z

M379 322

C381 320 383 318 383 318

L383 318

L380 322

C378 323 376 325 376 325

L376 325

L379 322

Z

M849 319

L849 315

L850 317

C850 318 850 320 850 321

L849 323

L849 319

Z

M385 317

C385 316 386 316 387 315

L389 314

L387 315

C386 316 386 317 385 317

L385 317

L385 317

Z

M391 312

C391 312 392 310 394 308

L398 306

L395 309

C393 311 391 312 391 312

L391 312

L391 312

Z

M848 309

L848 308

L849 309

L849 310

L849 311

L848 311

L848 309

Z

M398 306

C398 306 399 304 401 302

L405 300

L402 303

C400 305 398 306 398 306

L398 306

L398 306

Z

M847 303

L847 301

L848 302

C848 302 848 304 848 304

L847 306

L847 303

Z

M410 296

C411 294 413 293 413 293

L413 293

L411 296

C410 297 408 298 408 298

L408 298

L410 296

Z

M416 291

C416 290 418 289 418 289

L418 289

L417 291

C416 292 414 293 414 293

L414 293

L416 291

Z

M419 289

C419 288 420 288 421 287

L423 286

L421 287

C420 288 420 289 419 289

L419 289

L419 289

Z

M425 284

C425 283 427 282 427 282

L427 282

L426 284

C425 285 423 286 423 286

L423 286

L425 284

Z

M428 282

C428 281 439 273 446 268

L449 266

L449 266

C449 267 446 269 442 272

C438 275 433 278 431 280

L428 282

L428 282

Z

M837 269

C836 269 836 268 836 267

L836 267

L837 268

L838 270

L838 271

L837 271

L837 269

Z

M450 266

C450 265 451 264 453 264

L455 262

L455 263

C454 263 453 264 452 265

L450 266

L450 266

Z

M456 261

C457 261 458 260 459 259

L461 258

L461 258

C461 259 460 260 458 260

L456 262

L456 261

Z

M830 257

L829 255

L829 255

C830 255 830 256 831 257

L832 259

L832 259

C831 259 831 258 830 257

Z

M465 256

C465 255 466 255 467 254

L469 253

L469 253

C469 254 468 254 467 255

L465 256

L465 256

Z

M826 250

L825 249

L826 250

C827 251 828 251 828 252

L828 252

L828 252

C827 252 827 251 826 250

Z

M473 251

C473 250 474 250 475 249

L477 248

L477 248

C477 249 476 249 475 250

L473 251

L473 251

Z

M478 248

C478 247 479 247 480 246

L482 245

L482 245

C482 246 481 246 480 247

L478 248

L478 248

Z

M822 244

L821 243

L822 244

C823 245 824 245 824 246

L824 246

L824 246

C823 246 823 245 822 244

Z

M483 245

C483 244 484 244 485 243

L487 242

L487 242

C487 243 486 243 485 244

L483 245

L483 245

Z

M488 242

L488 241

L490 241

L491 240

L490 241

C490 242 489 242 489 242

L488 242

L488 242

Z

M818 239

L817 238

L818 239

C819 240 820 240 820 241

L820 241

L820 241

C819 241 819 240 818 239

Z

M500 235

C502 234 503 233 503 233

L504 233

L504 233

C504 234 502 234 501 235

L499 236

L500 235

Z

M807 228

L803 223

L808 227

C811 230 813 233 813 233

L813 233

L813 233

C813 233 810 231 807 228

Z

M515 228

C515 227 517 226 519 225

L523 223

L524 223

L524 224

L519 226

L515 228

L515 228

Z

M798 219

L795 216

L798 219

C800 221 802 223 802 223

L802 223

L802 223

C802 223 800 221 798 219

Z

M528 221

C529 220 530 220 531 220

L532 220

L530 221

C529 222 528 222 528 222

L527 222

L528 221

Z

M538 217

C539 216 541 215 542 215

L543 215

L540 217

C539 217 537 218 537 218

L536 218

L538 217

Z

M792 214

L791 213

L792 214

C793 215 794 215 794 216

L794 216

L794 216

C793 216 793 215 792 214

Z

M544 214

C545 213 546 213 547 213

L548 213

L546 214

C545 215 544 215 544 215

L543 215

L544 214

Z

M552 211

C553 210 554 210 555 210

L556 210

L554 211

C553 212 552 212 552 212

L551 212

L552 211

Z

M563 207

C564 206 565 206 566 206

L568 206

L566 207

C564 207 563 208 563 208

L562 208

L563 207

Z

M776 204

C774 204 773 203 773 202

L773 202

L776 204

C778 204 779 205 779 206

L779 206

L779 206

C779 206 777 205 776 204

Z

M768 200

L767 199

L769 200

C770 201 772 201 772 202

L772 202

L771 202

C771 202 770 201 768 200

Z

M593 197

L594 197

L595 197

L595 198

L593 198

L592 198

L593 197

Z

M761 197

L760 196

L761 196

C761 196 762 196 763 197

L765 198

L764 198

C763 198 762 198 761 197

Z

M604 194

L605 194

L606 194

L606 195

L604 195

L603 195

L604 194

Z

M747 191

L741 189

L744 190

C745 190 748 191 751 192

L755 194

L754 194

C753 194 750 193 747 191

Z

M611 192

C611 192 613 192 613 192

L615 193

L612 193

L610 193

L611 192

Z

M616 191

L617 191

L618 191

L618 192

L616 192

L615 192

L616 191

Z

M620 190

L621 190

L622 190

L622 191

L620 191

L619 191

L620 190

Z

M624 189

C624 189 626 189 626 189

L628 190

L625 190

L623 190

L624 189

Z

M632 188

C633 188 635 187 637 187

L639 187

L636 188

C635 188 632 189 631 189

L629 189

L632 188

Z

M738 188

L739 188

L740 188

L740 189

L738 189

L737 189

L738 188

Z

M734 187

L735 187

L736 187

L736 188

L734 188

L733 188

L734 187

Z

M640 186

C641 186 643 186 643 186

L645 187

L642 187

L639 187

L640 186

Z

M729 186

L730 186

L731 186

L731 187

L729 187

L728 187

L729 186

Z

M646 185

C647 185 649 185 650 185

L652 186

L648 186

L645 186

L646 185

Z

M723 185

C723 185 725 185 725 185

L727 186

L724 186

L722 186

L723 185

Z

M657 184

C659 184 663 183 665 183

L668 183

L663 184

C661 184 657 185 655 185

L652 185

L657 184

Z

M717 184

C718 184 720 184 720 184

L722 185

L719 185

L716 185

L717 184

Z

M710 183

C711 183 713 183 714 183

L716 184

L712 184

L708 184

L710 183

Z

M677 182

C683 182 691 182 697 182

L707 183

L687 183

L668 183

L677 182

Z

M0 12

C0 12 2 9 6 6

L11 0

L11 1

C11 2 2 12 1 12

L0 12

L0 12

Z

"/>

<path fill="#b8d0ef" stroke="none" d="
M135 1016

C129 1011 121 1005 117 1001

C79 970 61 962 39 968

C29 970 22 975 10 987

L0 997

L0 996

C0 994 15 979 22 975

C34 967 39 966 52 966

C71 966 81 971 116 998

C121 1002 131 1010 138 1014

C144 1019 150 1023 150 1024

L150 1024

L147 1024

C145 1024 141 1021 135 1016

Z

M239 1021

C259 990 282 978 308 987

C319 990 330 996 341 1004

C345 1008 354 1014 359 1017

L368 1024

L367 1024

C366 1024 364 1024 364 1023

C363 1022 359 1019 354 1016

C349 1012 342 1007 338 1003

C328 996 319 991 307 988

C294 984 284 984 271 991

C265 993 262 996 256 1002

C251 1007 245 1014 243 1017

C241 1021 238 1024 238 1024

L237 1024

L239 1021

Z

M433 1011

C440 1003 449 993 453 987

C479 953 487 946 505 939

C514 937 527 937 538 940

C550 944 558 949 583 965

C598 975 617 986 625 989

C634 993 645 995 655 995

C678 995 694 986 722 956

C755 922 760 918 769 913

C780 908 787 907 796 908

C805 909 818 915 827 922

C829 923 834 926 837 927

C840 929 844 932 847 934

C849 937 857 942 863 947

C899 972 912 977 932 977

C955 977 971 968 1005 934

L1023 916

L1024 916

L1024 917

L1006 935

C980 961 967 970 952 976

C945 978 942 978 932 978

C910 979 900 974 854 942

C852 941 848 938 846 936

C844 934 840 931 837 929

C833 928 829 925 827 923

C820 918 803 910 796 909

C783 907 770 912 757 923

C754 925 744 935 735 945

C704 979 687 992 667 995

C663 996 657 997 655 997

C648 997 635 994 627 992

C619 988 600 978 580 965

C557 950 549 946 538 942

C522 936 510 937 495 945

C486 949 473 963 458 983

C448 997 423 1024 421 1024

L420 1024

L433 1011

Z

M960 1016

L960 1008

L961 1008

C962 1007 969 1007 977 1007

L993 1007

L977 1008

L961 1009

L961 1017

L960 1025

L960 1016

Z

M1012 1007

C1014 1007 1018 1007 1020 1007

L1025 1008

L1016 1008

L1008 1008

L1012 1007

Z

M0 799

C0 798 6 794 12 789

C36 768 50 754 102 699

C127 672 190 608 210 589

C227 573 247 556 257 547

C261 543 269 537 274 533

C304 508 325 492 354 473

C361 469 377 458 391 449

C404 440 418 431 422 430

C433 424 444 421 458 420

C485 418 513 423 538 436

C543 438 547 440 547 440

L548 440

L547 427

C546 395 552 379 570 360

C592 338 620 322 650 316

C662 314 684 314 696 316

C722 322 743 335 757 355

C762 362 770 378 773 387

C775 396 776 412 775 421

C774 431 769 445 764 453

C754 467 739 480 720 489

C715 492 710 494 709 495

L709 496

L714 496

C721 495 740 488 751 483

C771 474 791 457 808 437

C846 392 858 333 840 280

C830 249 801 218 770 203

C727 181 674 178 608 196

C594 199 590 200 570 207

C517 224 465 253 412 296

C401 305 396 309 375 327

C346 353 299 399 263 437

C251 449 235 466 227 474

C220 482 212 491 209 493

C207 495 200 503 194 510

C188 517 180 525 177 529

C173 533 166 541 160 547

C154 553 145 563 140 569

C134 575 127 584 123 587

C116 595 111 600 95 618

C83 632 2 712 1 712

L0 712

L35 677

C68 645 81 631 106 604

C111 598 124 584 135 573

C145 562 160 545 168 537

C218 481 294 402 327 370

C385 315 434 275 475 250

C490 241 492 240 509 231

C557 207 608 191 660 184

C678 182 709 183 725 186

C746 190 771 200 789 212

C808 225 829 251 838 272

C846 290 849 308 849 332

C849 346 849 350 847 361

C839 396 824 424 799 449

C776 472 760 482 733 492

C722 495 707 499 706 498

L706 497

L708 495

C709 494 715 490 721 487

C737 479 749 470 759 458

C765 450 767 447 770 436

C773 429 773 426 774 414

C774 402 774 398 772 391

C770 382 763 366 758 359

C744 338 723 324 695 317

C685 315 662 315 651 317

C610 325 569 353 555 383

C549 396 548 400 549 422

L549 442

L548 442

C548 442 544 440 538 437

C499 417 454 415 423 431

C419 432 405 441 392 450

C378 459 358 472 348 479

C311 503 279 529 230 572

C202 598 137 663 84 720

C62 744 30 775 19 784

C15 788 9 793 6 795

C4 797 2 799 1 799

L0 799

L0 799

Z

M1016 662

C974 657 926 647 884 632

C860 624 823 609 820 606

L818 605

L820 604

C821 603 824 603 827 603

C846 603 898 597 923 593

C958 587 973 583 1002 575

C1013 572 1022 570 1023 570

L1024 570

L1024 572

L1024 573

L1022 573

C1020 573 1017 574 1014 575

C1008 577 996 580 987 582

C983 583 972 585 964 587

C923 596 875 603 838 605

L822 605

L822 606

L822 607

L830 610

C884 633 911 641 962 652

C978 655 1005 660 1016 661

L1024 661

L1024 662

L1024 663

L1024 663

C1024 663 1020 662 1016 662

Z

M4 5

C6 3 9 0 9 0

L9 0

L10 0

L10 1

L6 5

C4 8 1 10 1 10

L0 10

L4 5

Z

"/>

<path fill="#ffffff" stroke="none" d="
M0 1010

C0 997 0 997 10 987

C22 975 29 970 39 968

C51 965 62 966 76 972

C83 975 102 988 115 999

C118 1002 126 1009 132 1014

C139 1019 144 1023 144 1024

L144 1024

L72 1024

L0 1024

L0 1010

Z

M239 1023

C239 1023 242 1018 245 1014

C260 994 276 985 294 985

C305 985 324 993 338 1003

C354 1016 362 1022 363 1022

L364 1022

L364 1023

L364 1024

L301 1024

L239 1024

L239 1023

Z

M422 1024

C422 1023 428 1018 434 1011

C442 1003 451 992 458 983

C473 963 486 949 495 945

C510 937 522 936 538 942

C549 946 557 950 580 965

C600 978 619 988 627 992

C635 994 648 997 655 997

C657 997 663 996 667 995

C687 992 704 979 735 945

C744 935 754 925 757 923

C770 912 783 907 796 909

C803 910 820 918 827 923

C829 925 833 928 837 929

C840 931 844 934 846 936

C848 938 852 941 854 942

C900 974 910 979 932 978

C942 978 945 978 952 976

C967 970 980 961 1005 936

C1015 926 1023 918 1024 918

L1024 918

L1024 963

L1024 1007

L1016 1007

C1012 1007 994 1007 977 1007

C960 1007 946 1008 945 1008

C944 1009 944 1012 944 1017

L944 1024

L683 1024

L422 1024

L422 1024

Z

M0 755

C0 713 0 713 13 701

C29 686 80 635 95 618

C101 611 109 603 111 600

C114 597 119 591 123 587

C127 584 134 575 140 569

C145 563 154 553 160 547

C166 541 173 533 177 529

C180 525 188 517 194 510

C200 503 207 495 209 493

C212 491 220 482 227 474

C235 466 251 449 263 437

C299 399 346 353 375 327

C396 309 401 305 412 296

C465 253 517 224 570 207

C609 194 629 190 660 186

C694 182 727 185 754 195

C775 203 789 212 805 228

C821 243 834 262 840 280

C858 333 846 392 808 437

C791 457 771 474 751 483

C740 488 721 495 714 496

L709 496

L709 495

C710 494 715 492 720 489

C746 477 764 459 771 437

C775 426 776 416 775 404

C774 390 772 383 766 370

C752 342 729 323 696 316

C684 314 662 314 650 316

C606 325 562 357 551 390

C548 398 547 411 547 427

L548 440

L547 440

C547 440 543 438 538 436

C500 416 453 414 422 430

C418 431 404 440 391 449

C377 458 361 469 354 473

C325 492 304 508 274 533

C269 537 261 543 257 547

C247 556 227 573 210 589

C190 608 127 672 102 699

C50 754 36 768 12 788

C6 794 1 798 0 798

L0 798

L0 755

Z

M1012 660

C998 658 973 654 962 652

C911 641 884 633 830 610

L822 607

L822 606

L822 605

L838 605

C875 603 923 596 964 587

C972 585 983 583 987 582

C996 580 1008 577 1014 575

C1017 574 1020 573 1022 573

L1024 573

L1024 617

L1024 661

L1019 661

C1017 661 1013 661 1012 660

Z

M0 5

L0 0

L4 0

L8 0

L8 1

C8 1 6 3 4 6

L0 9

L0 5

Z

"/>

</svg>

