<?xml version="1.0" standalone="no"?>

<!DOCTYPE svg PUBLIC "-//W3C//DTD SVG 20010904//EN"

 "http://www.w3.org/TR/2001/REC-SVG-20010904/DTD/svg10.dtd">

<svg version="1.0" xmlns="http://www.w3.org/2000/svg"

 width="1024.000000pt" height="1024.000000pt" viewBox="0 0 1024.000000 1024.000000"

 preserveAspectRatio="xMidYMid meet">

<path fill="#33629c" stroke="none" d="
M0 512

L0 0

L512 0

L1024 0

L1024 512

L1024 1024

L512 1024

L0 1024

L0 512

Z

"/>

<path fill="#c4c458" stroke="none" d="
M0 1003

L0 982

L5 981

C8 980 15 976 21 973

C35 966 40 964 53 964

C61 964 64 964 70 967

C81 971 102 980 113 987

C136 1000 160 1011 175 1013

C184 1014 202 1014 211 1012

C223 1010 231 1007 255 995

C278 984 283 982 294 982

C300 982 301 982 317 974

C339 962 366 947 382 938

C389 934 397 929 399 928

C402 927 407 924 411 922

C418 917 460 896 478 888

C517 871 559 854 589 843

C659 819 716 807 785 802

C827 799 898 802 942 809

C961 812 1013 821 1019 822

L1024 823

L1024 916

L1024 1010

L1016 1009

L1008 1009

L1008 1017

L1008 1024

L504 1024

L0 1024

L0 1003

Z

M0 781

C0 711 0 711 41 670

C64 647 85 626 88 622

C92 618 98 612 102 607

C107 602 116 593 122 586

C128 579 137 570 141 566

C145 561 153 553 158 547

C163 541 173 530 180 523

C187 516 197 505 202 499

C207 493 219 481 227 472

C236 462 247 451 251 447

C268 428 324 373 347 351

C362 337 399 304 406 298

C408 297 416 290 424 284

C479 242 534 214 599 196

C621 190 637 186 660 183

C681 181 709 182 728 186

C764 193 794 211 816 237

C831 254 839 270 845 292

C849 307 850 318 850 336

C848 392 818 443 767 476

C752 486 726 496 711 498

L705 498

L705 497

C705 497 708 494 711 492

C722 483 735 459 740 439

C741 430 741 415 739 407

C735 390 726 380 708 373

C700 371 699 371 684 371

C669 371 667 371 660 373

C643 379 630 389 623 401

C618 409 613 424 612 433

C611 445 615 462 622 475

C626 485 643 499 670 517

C691 531 694 533 755 570

C785 588 812 603 815 603

C821 604 872 600 894 597

C919 594 957 587 974 582

C983 580 1019 571 1022 569

L1024 569

L1024 654

L1024 738

L1015 738

C927 731 851 712 782 677

C740 657 715 641 658 596

C607 558 562 534 522 525

C473 513 431 520 390 545

C363 562 333 589 227 690

C186 729 151 761 134 775

C128 779 121 785 119 787

C112 792 86 809 70 819

C49 831 14 848 3 851

L0 851

L0 781

Z

M0 6

L0 0

L6 0

L11 0

L11 1

C11 2 2 12 1 12

L0 12

L0 6

Z

"/>

<path fill="#69a7ff" stroke="none" d="
M0 1003

L0 982

L5 981

C8 980 15 976 21 973

C35 966 40 964 53 964

C61 964 64 964 70 967

C81 971 102 980 113 987

C136 1000 160 1011 175 1013

C184 1014 202 1014 211 1012

C223 1010 231 1007 255 995

C278 984 283 982 294 982

C300 982 301 982 317 974

C339 962 366 947 382 938

C389 934 397 929 399 928

C402 927 407 924 411 922

C418 917 460 896 478 888

C517 871 559 854 589 843

C659 819 716 807 785 802

C827 799 898 802 942 809

C961 812 1013 821 1019 822

L1024 823

L1024 916

L1024 1010

L1017 1009

C1013 1009 1009 1009 1008 1009

C1007 1008 1000 1008 991 1008

L977 1009

L976 1016

L976 1024

L968 1024

L960 1024

L960 1016

L960 1009

L952 1009

L945 1009

L944 1016

L944 1024

L472 1024

L0 1024

L0 1003

Z

M0 781

C0 711 0 711 41 670

C64 647 85 626 88 622

C92 618 98 612 102 607

C107 602 116 593 122 586

C128 579 137 570 141 566

C145 561 153 553 158 547

C163 541 173 530 180 523

C187 516 197 505 202 499

C207 493 219 481 227 472

C236 462 247 451 251 447

C268 428 324 373 347 351

C362 337 399 304 406 298

C408 297 416 290 424 284

C479 242 534 214 599 196

C621 190 637 186 660 183

C681 181 709 182 728 186

C764 193 794 211 816 237

C831 254 839 270 845 292

C849 307 850 318 850 336

C848 392 818 443 767 476

C752 486 726 496 711 498

L705 498

L705 497

C705 497 708 494 711 492

C722 483 735 459 740 439

C741 430 741 415 739 407

C735 390 726 380 708 373

C700 371 699 371 684 371

C669 371 667 371 660 373

C643 379 630 389 623 401

C618 409 613 424 612 433

C611 445 615 462 622 475

C626 485 643 499 670 517

C691 531 694 533 755 570

C785 588 812 603 815 603

C821 604 872 600 894 597

C919 594 957 587 974 582

C983 580 1019 571 1022 569

L1024 569

L1024 654

L1024 738

L1015 738

C927 731 851 712 782 677

C740 657 715 641 658 596

C607 558 562 534 522 525

C473 513 431 520 390 545

C363 562 333 589 227 690

C186 729 151 761 134 775

C128 779 121 785 119 787

C112 792 86 809 70 819

C49 831 14 848 3 851

L0 851

L0 781

Z

M0 6

L0 0

L6 0

L11 0

L11 1

C11 2 2 12 1 12

L0 12

L0 6

Z

"/>

<path fill="#b8d0ef" stroke="none" d="
M0 1009

C0 995 0 995 7 987

C15 979 26 971 35 968

C40 966 42 966 52 966

C71 966 81 971 116 998

C121 1002 131 1010 138 1014

C144 1019 150 1023 150 1024

L150 1024

L75 1024

L0 1024

L0 1009

Z

M239 1021

C259 990 282 978 308 987

C319 990 330 996 341 1004

C345 1008 353 1013 358 1017

C363 1020 367 1023 367 1023

L368 1024

L303 1024

L237 1024

L239 1021

Z

M433 1011

C440 1003 449 993 453 987

C479 953 487 946 505 939

C514 937 527 937 538 940

C550 944 558 949 583 965

C598 975 617 986 625 989

C634 993 645 995 655 995

C678 995 694 986 722 956

C755 922 760 918 769 913

C780 908 787 907 796 908

C805 909 818 915 827 922

C829 923 834 926 837 927

C840 929 844 932 847 934

C849 937 857 942 863 947

C899 972 912 977 932 977

C955 977 971 968 1005 934

C1015 924 1023 916 1024 916

L1024 916

L1024 962

L1024 1008

L1005 1008

C994 1008 980 1008 973 1009

L961 1009

L961 1017

L961 1025

L960 1017

L960 1009

L952 1009

L945 1009

L944 1016

L944 1024

L682 1024

L420 1024

L433 1011

Z

M0 756

C0 712 0 712 35 677

C68 645 81 631 106 604

C111 598 124 584 135 573

C145 562 160 545 168 537

C218 481 294 402 327 370

C385 315 434 275 475 250

C490 241 492 240 509 231

C557 207 608 191 660 184

C678 182 709 183 725 186

C746 190 771 200 789 212

C808 225 829 251 838 272

C846 290 849 308 849 332

C849 346 849 350 847 361

C839 396 824 424 799 449

C776 472 760 482 733 492

C722 495 707 499 706 498

L706 497

L708 495

C709 494 715 490 721 487

C737 479 749 470 759 458

C765 450 767 447 770 436

C773 429 773 426 774 414

C774 402 774 398 772 391

C770 382 763 366 758 359

C744 338 723 324 695 317

C685 315 662 315 651 317

C610 325 569 353 555 383

C549 396 548 400 549 422

L549 442

L548 442

C548 442 544 440 538 437

C499 417 454 415 423 431

C419 432 405 441 392 450

C378 459 358 472 348 479

C311 503 279 529 230 572

C202 598 137 663 84 720

C62 744 30 775 19 784

C15 788 9 793 6 795

C4 797 2 799 1 799

L0 799

L0 756

Z

M1016 662

C978 658 926 647 884 632

C860 624 823 609 820 606

L818 605

L820 604

C821 603 824 603 827 603

C846 603 898 597 923 593

C958 587 972 584 1002 575

C1014 572 1023 570 1024 570

C1024 570 1024 591 1024 617

L1024 663

L1016 662

Z

M0 5

L0 0

L5 0

L10 0

L10 1

C10 1 2 10 1 10

L0 10

L0 5

Z

"/>

<path fill="#ffffff" stroke="none" d="
M0 1010

C0 997 0 997 10 987

C22 975 29 970 39 968

C51 965 62 966 76 972

C83 975 102 988 115 999

C118 1002 126 1009 132 1014

C139 1019 144 1023 144 1024

L144 1024

L72 1024

L0 1024

L0 1010

Z

M239 1023

C239 1023 242 1018 245 1014

C260 994 276 985 294 985

C305 985 324 993 338 1003

C354 1016 362 1022 363 1022

L364 1022

L364 1023

L364 1024

L301 1024

L239 1024

L239 1023

Z

M422 1024

C422 1023 428 1018 434 1011

C442 1003 451 992 458 983

C473 963 486 949 495 945

C510 937 522 936 538 942

C549 946 557 950 580 965

C600 978 619 988 627 992

C635 994 648 997 655 997

C657 997 663 996 667 995

C687 992 704 979 735 945

C744 935 754 925 757 923

C770 912 783 907 796 909

C803 910 820 918 827 923

C829 925 833 928 837 929

C840 931 844 934 846 936

C848 938 852 941 854 942

C900 974 910 979 932 978

C942 978 945 978 952 976

C967 970 980 961 1005 936

C1015 926 1023 918 1024 918

L1024 918

L1024 963

L1024 1007

L1016 1007

C1012 1007 994 1007 977 1007

C960 1007 946 1008 945 1008

C944 1009 944 1012 944 1017

L944 1024

L683 1024

L422 1024

L422 1024

Z

M0 755

C0 713 0 713 13 701

C29 686 80 635 95 618

C101 611 109 603 111 600

C114 597 119 591 123 587

C127 584 134 575 140 569

C145 563 154 553 160 547

C166 541 173 533 177 529

C180 525 188 517 194 510

C200 503 207 495 209 493

C212 491 220 482 227 474

C235 466 251 449 263 437

C299 399 346 353 375 327

C396 309 401 305 412 296

C465 253 517 224 570 207

C609 194 629 190 660 186

C694 182 727 185 754 195

C775 203 789 212 805 228

C821 243 834 262 840 280

C858 333 846 392 808 437

C791 457 771 474 751 483

C740 488 721 495 714 496

L709 496

L709 495

C710 494 715 492 720 489

C746 477 764 459 771 437

C775 426 776 416 775 404

C774 390 772 383 766 370

C752 342 729 323 696 316

C684 314 662 314 650 316

C606 325 562 357 551 390

C548 398 547 411 547 427

L548 440

L547 440

C547 440 543 438 538 436

C500 416 453 414 422 430

C418 431 404 440 391 449

C377 458 361 469 354 473

C325 492 304 508 274 533

C269 537 261 543 257 547

C247 556 227 573 210 589

C190 608 127 672 102 699

C50 754 36 768 12 788

C6 794 1 798 0 798

L0 798

L0 755

Z

M1012 660

C998 658 973 654 962 652

C911 641 884 633 830 610

L822 607

L822 606

L822 605

L838 605

C875 603 923 596 964 587

C972 585 983 583 987 582

C996 580 1008 577 1014 575

C1017 574 1020 573 1022 573

L1024 573

L1024 617

L1024 661

L1019 661

C1017 661 1013 661 1012 660

Z

M0 5

L0 0

L4 0

L8 0

L8 1

C8 1 6 3 4 6

L0 9

L0 5

Z

"/>

</svg>

