<?xml version="1.0" encoding="UTF-8" standalone="no"?>
<!DOCTYPE svg PUBLIC "-//W3C//DTD SVG 1.1//EN" "http://www.w3.org/Graphics/SVG/1.1/DTD/svg11.dtd">
<svg width="100%" height="100%" viewBox="0 0 1200 1200" version="1.1" xmlns="http://www.w3.org/2000/svg" xmlns:xlink="http://www.w3.org/1999/xlink" xml:space="preserve" xmlns:serif="http://www.serif.com/" style="fill-rule:evenodd;clip-rule:evenodd;stroke-linecap:round;stroke-miterlimit:10;">
    <g id="Signals" transform="matrix(0.887166,0,0,0.887166,79.8053,91.6882)">
        <g id="BG" transform="matrix(1.12718,0,0,1.12718,-89.9553,-103.35)">
            <rect x="-21" y="-31" width="1252" height="1252" style="fill:none;"/>
        </g>
        <g id="Signal-D" serif:id="Signal D">
            <g transform="matrix(1,0,0,1,69,884)">
                <path d="M267,157.5L253.5,144L104.5,144L91,157.5L91,184.5L104.5,198L253.5,198L267,184.5L267,157.5Z" style="fill:rgb(255,0,0);"/>
            </g>
            <g transform="matrix(1.33523,0,0,1,523.494,884)">
                <path d="M267,157.5L256.889,144L101.111,144L91,157.5L91,184.5L101.111,198L256.889,198L267,184.5L267,157.5Z" style="fill:rgb(255,0,0);"/>
            </g>
            <g transform="matrix(0.875,0,0,1,873.375,884)">
                <path d="M267,157.5L251.571,144L106.429,144L91,157.5L91,184.5L106.429,198L251.571,198L267,184.5L267,157.5Z" style="fill:rgb(255,0,0);"/>
            </g>
            <g transform="matrix(0.607955,0,0,1,351.676,884)">
                <path d="M267,157.5L244.794,144L113.206,144L91,157.5L91,184.5L113.206,198L244.794,198L267,184.5L267,157.5Z" style="fill:rgb(255,0,0);"/>
            </g>
            <g transform="matrix(0.534091,0,0,1,9.39773,757)">
                <path d="M267,157.5L241.723,144L116.277,144L91,157.5L91,184.5L116.277,198L241.723,198L267,184.5L267,157.5Z" style="fill:rgb(0,255,1);"/>
            </g>
            <g transform="matrix(0.403409,0,0,1,297.29,757)">
                <path d="M267,157.5L233.535,144L124.465,144L91,157.5L91,184.5L124.465,198L233.535,198L267,184.5L267,157.5Z" style="fill:rgb(0,255,1);"/>
            </g>
            <g transform="matrix(0.75,0,0,1,444.75,757)">
                <path d="M267,157.5L249,144L109,144L91,157.5L91,184.5L109,198L249,198L267,184.5L267,157.5Z" style="fill:rgb(0,255,1);"/>
            </g>
            <g transform="matrix(0.397727,0,0,1,844.807,757)">
                <path d="M267,157.5L233.057,144L124.943,144L91,157.5L91,184.5L124.943,198L233.057,198L267,184.5L267,157.5Z" style="fill:rgb(0,255,1);"/>
            </g>
        </g>
        <g transform="matrix(1.92219,0,0,0.55814,-14.755,673.674)">
            <g id="Sep-CD" serif:id="Sep CD">
                <path d="M620,308.75L616.879,298L19.121,298L16,308.75L16,330.25L19.121,341L616.879,341L620,330.25L620,308.75Z" style="fill:rgb(0,138,255);"/>
            </g>
        </g>
        <g id="Signal-C" serif:id="Signal C">
            <g transform="matrix(3.09091,0,0,1,-218.273,601)">
                <path d="M267,157.5L262.632,144L95.368,144L91,157.5L91,184.5L95.368,198L262.632,198L267,184.5L267,157.5Z" style="fill:rgb(255,0,0);"/>
            </g>
            <g transform="matrix(1.55682,0,0,1,533.33,601)">
                <path d="M267,157.5L258.328,144L99.672,144L91,157.5L91,184.5L99.672,198L258.328,198L267,184.5L267,157.5Z" style="fill:rgb(255,0,0);"/>
            </g>
            <g transform="matrix(0.403409,0,0,1,574.29,474)">
                <path d="M267,157.5L233.535,144L124.465,144L91,157.5L91,184.5L124.465,198L233.535,198L267,184.5L267,157.5Z" style="fill:rgb(0,255,1);"/>
            </g>
            <g transform="matrix(1.00568,0,0,1,847.483,474)">
                <path d="M267,157.5L253.576,144L104.424,144L91,157.5L91,184.5L104.424,198L253.576,198L267,184.5L267,157.5Z" style="fill:rgb(0,255,1);"/>
            </g>
        </g>
        <g transform="matrix(1.92219,0,0,0.55814,-14.755,131.674)">
            <g id="Sep-BC" serif:id="Sep BC">
                <path d="M620,308.75L616.879,298L19.121,298L16,308.75L16,330.25L19.121,341L616.879,341L620,330.25L620,308.75Z" style="fill:rgb(0,138,255);"/>
            </g>
        </g>
        <g id="Signal-B" serif:id="Signal B">
            <g transform="matrix(1.21591,0,0,1,520.352,344)">
                <path d="M267,157.5L255.897,144L102.103,144L91,157.5L91,184.5L102.103,198L255.897,198L267,184.5L267,157.5Z" style="fill:rgb(255,0,0);"/>
            </g>
            <g transform="matrix(0.875,0,0,1,290.375,344)">
                <path d="M267,157.5L251.571,144L106.429,144L91,157.5L91,184.5L106.429,198L251.571,198L267,184.5L267,157.5Z" style="fill:rgb(255,0,0);"/>
            </g>
            <g transform="matrix(1.75,0,0,1,-97.25,217)">
                <path d="M267,157.5L259.286,144L98.714,144L91,157.5L91,184.5L98.714,198L259.286,198L267,184.5L267,157.5Z" style="fill:rgb(0,255,1);"/>
            </g>
            <g transform="matrix(0.596591,0,0,1,472.71,217)">
                <path d="M267,157.5L244.371,144L113.629,144L91,157.5L91,184.5L113.629,198L244.371,198L267,184.5L267,157.5Z" style="fill:rgb(0,255,1);"/>
            </g>
            <g transform="matrix(1.49432,0,0,1,711.017,217)">
                <path d="M267,157.5L257.966,144L100.034,144L91,157.5L91,184.5L100.034,198L257.966,198L267,184.5L267,157.5Z" style="fill:rgb(0,255,1);"/>
            </g>
        </g>
        <g transform="matrix(1.92219,0,0,0.55814,-14.755,403.674)">
            <g id="Sep-AB" serif:id="Sep AB">
                <path d="M620,308.75L616.879,298L19.121,298L16,308.75L16,330.25L19.121,341L616.879,341L620,330.25L620,308.75Z" style="fill:rgb(0,138,255);"/>
            </g>
        </g>
        <g id="Signal-A" serif:id="Signal A">
            <g transform="matrix(1,0,0,1,-28,60)">
                <path d="M267,157.5L253.5,144L104.5,144L91,157.5L91,184.5L104.5,198L253.5,198L267,184.5L267,157.5Z" style="fill:rgb(255,0,0);"/>
            </g>
            <g transform="matrix(1.33523,0,0,1,407.494,60)">
                <path d="M267,157.5L256.889,144L101.111,144L91,157.5L91,184.5L101.111,198L256.889,198L267,184.5L267,157.5Z" style="fill:rgb(255,0,0);"/>
            </g>
            <g transform="matrix(1.23295,0,0,1,785.801,60)">
                <path d="M267,157.5L256.051,144L101.949,144L91,157.5L91,184.5L101.949,198L256.051,198L267,184.5L267,157.5Z" style="fill:rgb(255,0,0);"/>
            </g>
            <g transform="matrix(0.607955,0,0,1,287.676,60)">
                <path d="M267,157.5L244.794,144L113.206,144L91,157.5L91,184.5L113.206,198L244.794,198L267,184.5L267,157.5Z" style="fill:rgb(255,0,0);"/>
            </g>
            <g transform="matrix(0.534091,0,0,1,197.398,-67)">
                <path d="M267,157.5L241.723,144L116.277,144L91,157.5L91,184.5L116.277,198L241.723,198L267,184.5L267,157.5Z" style="fill:rgb(0,255,1);"/>
            </g>
            <g transform="matrix(0.403409,0,0,1,417.29,-67)">
                <path d="M267,157.5L233.535,144L124.465,144L91,157.5L91,184.5L124.465,198L233.535,198L267,184.5L267,157.5Z" style="fill:rgb(0,255,1);"/>
            </g>
            <g transform="matrix(0.75,0,0,1,699.75,-67)">
                <path d="M267,157.5L249,144L109,144L91,157.5L91,184.5L109,198L249,198L267,184.5L267,157.5Z" style="fill:rgb(0,255,1);"/>
            </g>
        </g>
    </g>
    <g transform="matrix(2.03853,0,0,2.02818,133.541,96.6764)">
        <g id="Outer-Perimeter" serif:id="Outer Perimeter">
            <path d="M505,15.001L466.197,-24L-1.197,-24L-40,15.001L-40,481.999L-1.197,521L466.197,521L505,481.999L505,15.001Z" style="fill:none;stroke:rgb(255,121,0);stroke-width:30.74px;"/>
        </g>
    </g>
</svg>
